<?xml version="1.0" encoding="UTF-8"?>
<svg height="100" width="100" xmlns="http://www.w3.org/2000/svg">
  <!-- Side Ears -->
  <polygon points="15,20 50,50 15,50" stroke="black" stroke-width="2" fill="#FFCC66" />
  <polygon points="85,20 50,50 85,50" stroke="black" stroke-width="2" fill="#FFCC66" />
  <!-- Face -->
  <circle cx="50" cy="50" r="30" stroke="black" stroke-width="2" fill="#FFCC66" />
  <!-- Eyes -->
  <circle cx="40" cy="45" r="4" stroke="black" stroke-width="1" fill="white" />
  <circle cx="60" cy="45" r="4" stroke="black" stroke-width="1" fill="white" />
  <!-- Eye pupils -->
  <circle cx="40" cy="45" r="2" fill="black" />
  <circle cx="60" cy="45" r="2" fill="black" />
  <!-- Mouth -->
  <path d="M 50 60 Q 52 65 50 70" stroke="black" stroke-width="1" fill="none" />
  <!-- Nose -->
  <circle cx="50" cy="55" r="2" stroke="black" stroke-width="1" fill="pink" />
  <!-- Whiskers -->
  <line x1="20" y1="60" x2="40" y2="65" style="stroke:black;stroke-width:1" />
  <line x1="20" y1="65" x2="40" y2="65" style="stroke:black;stroke-width:1" />
  <line x1="20" y1="70" x2="40" y2="65" style="stroke:black;stroke-width:1" />
  <line x1="60" y1="65" x2="80" y2="60" style="stroke:black;stroke-width:1" />
  <line x1="60" y1="65" x2="80" y2="65" style="stroke:black;stroke-width:1" />
  <line x1="60" y1="65" x2="80" y2="70" style="stroke:black;stroke-width:1" />
</svg>
